<svg height="616pt" preserveAspectRatio="xMidYMid meet" viewBox="0 0 3474 616" width="3474pt" xmlns="http://www.w3.org/2000/svg"><g transform="matrix(.1 0 0 -.1 0 616)"><path d="m1900 6066c-3-3-62-10-130-16-223-20-235-22-245-31-5-5-25-9-44-9s-50-4-68-10c-18-5-48-14-65-19-76-20-124-34-143-41-11-4-36-13-55-20-103-36-311-140-349-174-10-9-21-16-24-16-10 0-91-63-165-128-140-123-288-332-351-497-13-33-26-69-31-80-7-18-20-62-41-140-58-218-66-564-18-800 31-155 48-206 118-355 89-191 277-423 464-573 159-128 383-265 627-383 344-167 694-342 749-375 34-22 65-39 67-39 21 0 177-121 249-194 87-87 95-100 167-248 4-10 8-30 8-45 0-16 5-44 10-64 11-40-7-185-33-257-66-186-248-324-487-370-250-49-483-42-820 24-314 62-736 204-1107 375-90 41-113 47-113 27 0-7 1-150 2-318 2-168 3-417 3-553v-249l40-22c22-12 60-30 85-40s59-24 75-31c66-28 197-75 270-95 17-5 48-14 70-20 153-43 327-78 495-100 364-47 829-47 1140 0 94 14 177 31 295 58 66 16 224 71 315 109 211 91 359 191 525 358 278 277 403 560 434 981 30 389-58 752-250 1036-54 79-219 250-322 334-161 130-448 307-700 432-67 33-246 121-397 196-443 218-536 275-661 399-74 74-118 145-149 242-19 60-17 248 4 310 32 95 70 158 130 220 60 61 144 125 165 125 6 0 19 4 29 9 154 78 410 92 732 40 262-43 481-109 854-258 71-29 136-51 143-49 8 2 27 35 43 73 16 39 102 243 191 455 88 212 162 394 162 405 2 17-21 29-138 76-383 153-746 257-1055 300-185 26-685 51-700 35z"/><path d="m26880 6066c-3-3-60-10-125-16-203-18-324-38-470-80-22-6-52-14-68-17-15-3-30-9-33-14s-14-9-25-9c-10 0-27-4-37-9-9-5-28-13-42-19-36-14-210-99-245-120-239-139-460-379-573-622-171-367-198-882-66-1265 94-275 325-582 584-777 144-109 366-240 580-344 347-168 694-342 749-375 34-22 65-39 67-39 21 0 176-121 249-194 87-88 95-99 167-248 4-10 8-30 8-45 0-16 5-44 10-64 11-40-7-185-33-257-52-148-175-263-352-332-158-61-421-86-649-60-427 48-773 148-1317 380-104 45-195 80-202 77-9-3-11-139-8-568 1-310 6-568 10-572s74-35 155-68c166-68 325-121 456-151 25-5 63-14 85-20 246-59 581-93 920-93 307 0 527 22 765 74 100 22 129 30 220 60 302 101 500 221 705 426 278 277 403 560 434 981 30 389-58 752-250 1036-54 79-219 251-322 334-168 137-460 315-737 450-816 400-880 436-1021 578-120 119-162 221-162 391 0 77 5 125 17 160 69 202 214 334 431 394 115 31 303 40 469 21 329-37 575-105 1010-279 71-29 136-51 143-49 8 2 27 35 43 73 16 39 104 250 195 469 91 220 162 403 158 407-29 28-500 198-692 250-42 11-92 25-111 31-163 45-346 77-560 99-115 11-523 23-530 15z"/><path d="m22662 5858c-43-62-137-198-207-303-195-289-599-882-980-1440-90-132-239-352-332-488-92-136-239-352-326-480s-204-299-259-382c-56-82-154-227-220-322l-119-171-4-426-4-426h1235 1234v-595c0-328 1-599 4-603 2-4 271-6 596-4l593 2-4 598-4 597 346 3 347 2 4 463c2 254 3 464 1 466-2 3-159 5-349 5l-346 1 1 1808 2 1807h-565-564zm70-1308c-5-43-22-325-33-565-5-126-13-546-15-932l-6-703h-694c-454 0-694 3-694 10 0 5 225 347 500 760 275 412 500 754 500 759s7 14 15 21c9 7 23 28 31 46 9 19 20 34 25 34s9 5 9 11c0 5 17 36 38 67s41 64 45 72 20 38 37 65c17 28 33 58 37 68 3 9 9 17 14 17s9 8 9 18 4 22 10 28c13 13 110 205 110 219 0 19 23 36 45 33 15-2 19-9 17-28zm509-2320c27 0 49-4 49-10 0-5 7-10 16-10 18 0 37-17 47-42 3-10 11-18 17-18 19 0 42-30 36-45-3-9 0-15 9-15 8 0 15-8 15-18s9-24 20-32c17-12 20-26 20-81 0-45 4-69 13-72 6-3 2-6-10-6-13-1-23-5-23-11 0-5-8-11-17-11-17-1-17-2 0-6 12-3 17-15 17-39 0-19-4-34-10-34-5 0-10-9-10-20s-6-20-14-20c-9 0-12-8-9-25 5-25-9-46-39-58-10-3-18-13-18-22 0-21-30-19-31 3-1 16-2 16-6 0-6-23-36-30-98-23-27 4-67 6-87 5-31-1-45 6-73 34-19 20-35 41-35 48 0 8-9 20-20 28-12 8-20 26-20 42 0 15-4 28-10 28-5 0-10 14-10 30 0 17-4 30-9 30s-11 9-14 20-12 20-21 20c-10 0-16 9-16 25 0 14 5 25 10 25 6 0 10 18 10 40 0 29 4 40 15 40 8 0 15-7 15-16 0-8 4-13 8-10 5 3 7 19 4 36-3 23 0 30 12 30 9 0 13 6 10 14-9 22 99 126 131 126 14 0 25 5 25 10 0 6 9 10 20 10s20 6 21 13c0 10 2 10 6 0 3-8 24-13 54-13z"/><path d="m23006 2104c-5-14-4-15 9-4 17 14 19 20 6 20-5 0-12-7-15-16z"/><path d="m23425 2030c3-5 8-10 11-10 2 0 4 5 4 10 0 6-5 10-11 10-5 0-7-4-4-10z"/><path d="m22930 1949c0-5 5-7 10-4 6 3 10 8 10 11 0 2-4 4-10 4-5 0-10-5-10-11z"/><path d="m23010 1740c0-5 5-10 11-10 5 0 7 5 4 10-3 6-8 10-11 10-2 0-4-4-4-10z"/><path d="m23371 1706c-7-8-8-17-3-20 6-3 12 3 15 14 6 24 4 25-12 6z"/><path d="m23040 1696c0-2 8-10 18-17 15-13 16-12 3 4s-21 21-21 13z"/><path d="m23086 1661c-3-5 3-11 15-14 16-4 18-3 8 9-13 16-16 17-23 5z"/><path d="m29860 3095v-2876l1013 4c617 3 1047 9 1102 15 50 6 133 16 185 22 145 16 262 37 450 80 373 85 745 255 1040 474 127 94 358 326 456 457 194 262 321 534 415 887 5 17 14 47 19 65 6 18 10 47 10 65 0 17 4 33 9 36s11 29 15 58c3 29 11 85 17 123 6 39 12 106 15 150s9 89 15 100c6 13 8 157 5 395-4 363-11 478-36 625-6 39-15 93-20 120-5 28-13 69-19 93-6 23-15 59-20 80-5 20-14 54-20 75-6 20-15 52-20 70-9 34-18 60-31 92-4 11-23 58-41 105-36 94-123 268-188 375-211 346-594 687-981 872-124 59-305 129-397 154-18 5-50 14-70 20-74 21-178 45-250 59-170 32-238 42-443 61-59 6-570 13-1167 15l-1063 5zm2088 1875c285-31 436-71 637-171 132-65 216-124 315-220 84-82 105-107 177-215 102-153 184-350 231-554 79-342 93-739 41-1135-18-142-65-346-99-430-4-11-18-47-31-80-33-86-114-239-167-315-64-92-243-267-333-328-75-50-173-103-254-137-22-9-49-21-60-26-22-9-138-44-195-59-219-56-422-72-823-68l-308 3v1870c0 1029 1 1871 1 1873 1 7 787 0 868-8z"/><path d="m5353 5572c-6-4-39-84-73-177-33-94-70-194-81-222-10-29-28-77-38-105-11-29-43-116-71-193s-59-160-68-184c-19-51-10-46-400-277l-282-167 2-256 3-256 288 4 287 3v-1168c0-1241 1-1279 49-1499 52-241 149-436 292-589 58-63 200-167 269-198 291-132 637-174 1100-133 162 15 220 23 330 44 191 38 425 115 435 144 3 7 6 209 7 450 2 328 0 437-9 437-6 0-65-15-130-34-213-61-473-106-618-106-63 0-167 16-220 35-138 48-237 146-283 280-29 83-32 212-32 1262v1076l623-4 622-4v450 450h-620-620v470 470l-375 2c-206 2-380-1-387-5z"/><path d="m13733 5572c-6-4-48-108-93-232s-97-267-116-317c-19-51-50-137-70-190-19-54-43-118-52-142-18-51-7-43-399-277l-283-168v-253c0-234 1-253 18-253h290l272 1v-1168c0-1242 2-1287 49-1500 73-325 219-561 439-710 89-61 113-73 217-115 223-90 601-129 955-98 206 18 267 26 375 49 28 6 64 14 80 17 127 25 353 105 360 127 2 7 5 209 8 449 3 344 1 438-9 438-7 0-66-15-131-34-213-61-473-106-618-106-63 0-167 16-220 35-138 48-237 146-283 280-29 83-32 212-32 1261v1076l621-3 621-3 1 449 2 450h-620-620v470 470l-375 2c-206 2-380-1-387-5z"/><path d="m9665 4694c-242-26-497-79-720-151-194-62-509-196-532-226-7-8 48-132 183-407 106-217 195-399 197-405 4-11 25-4 227 77 560 227 1058 296 1345 188 136-51 244-147 299-265 60-129 76-215 76-404v-148l-142-6c-79-4-262-9-408-12-468-10-755-39-1050-106-101-24-278-76-302-89-10-6-23-10-29-10s-57-22-114-49c-395-187-602-450-677-860-29-163-29-434 1-611 25-148 60-268 107-368 19-41 34-76 34-78 0-3 26-44 57-92 119-179 301-329 508-417 74-31 82-34 200-66 120-32 242-44 455-44 284 0 498 28 685 90 110 36 266 115 350 177 81 60 337 310 378 369 39 57 60 48 94-41 6-14 15-36 21-50 5-14 20-52 32-85s26-69 30-80 18-47 30-80 30-78 39-100c10-22 23-59 31-83l13-42h424 423v1508c0 996-4 1546-11 1618-11 112-31 242-48 304-6 19-14 51-19 70-52 193-174 398-323 542-247 239-587 378-1059 433-160 19-624 18-805-1zm1073-2654c4-294-16-413-99-576-32-65-143-214-158-214-3 0-19-13-36-28-142-132-389-213-643-211-97 1-224 17-238 32-4 4-16 7-26 7s-26 4-36 9c-9 5-30 15-46 22-73 34-171 147-196 224-7 22-17 52-22 67-16 43-12 265 5 328 44 164 116 266 252 356 61 41 146 84 165 84 6 0 18 4 28 9 9 5 37 15 62 21 25 7 56 16 70 20 68 21 303 48 480 55 79 3 146 8 149 11 3 2 68 3 145 2l141-3z"/><path d="m17840 4703c-197-21-410-61-535-102-377-121-648-334-781-614-81-171-109-335-101-586 10-288 61-465 189-655 51-74 184-208 268-270 124-92 336-208 555-306 28-12 74-33 103-46s55-24 57-24 34-13 70-30 68-30 70-30 28-11 57-24 76-34 103-46c105-46 374-182 424-215 29-19 56-35 60-35 16 0 152-134 164-163 8-18 19-45 26-60 14-36 14-168 0-204-28-68-36-81-84-128-151-150-465-192-920-123-175 26-390 76-590 138-38 12-86 26-105 32-54 16-299 112-359 142-99 47-95 55-88-162 4-103 7-325 7-494v-307l45-20c86-38 289-102 415-131 162-37 195-43 375-64 475-56 1020-42 1365 35 109 25 140 33 225 61 111 36 110 36 219 89 361 176 573 444 657 829 20 92 23 133 23 325 0 279-21 389-112 585-37 81-135 210-223 295-138 132-232 194-489 323-170 85-206 101-390 174-69 27-141 56-160 65-19 8-44 19-55 23s-40 17-65 28c-25 10-65 28-90 38-97 41-380 186-380 195 0 5-6 9-14 9-21 0-120 112-144 164-26 54-30 155-8 207 54 127 220 193 495 198 222 4 427-32 709-125 82-27 367-138 456-178 48-21 62-24 72-14 6 7 82 184 169 393s166 398 176 419c11 22 19 43 19 48 0 9-50 32-185 86-336 133-680 217-1034 252-95 9-581 12-661 3z"/></g></svg>
